<svg version="1.2" xmlns="http://www.w3.org/2000/svg" viewBox="0 0 54 76" width="54" height="76"><defs><clipPath clipPathUnits="userSpaceOnUse" id="cp1"><path d="m-1820-21h1920v1080h-1920z" /></clipPath></defs><style>.s0{fill:#efa0b7}</style><g clip-path="url(#cp1)"><path fill-rule="evenodd" class="s0" d="m25.2 4.2c-2.9 0-4.8 0.8-6 1.8c-1.2 1.1-2 2.6-2.4 4.4c-0.5 1.9-0.5 4-0.5 6q0 0.5 0 1h35.1c1 0 1.9 0.8 1.7 1.8c-1.2 10.6-12.4 18.8-26.1 18.8c-13.7 0-24.9-8.2-26.1-18.8c-0.2-1 0.7-1.8 1.7-1.8h10q0-0.5-0.1-0.9c0-2.2 0.1-4.6 0.6-6.9c0.6-2.4 1.7-4.7 3.7-6.4c2-1.7 4.8-2.7 8.4-2.7h0.2c2.2 0 5 0 7.4 0.7c1.2 0.3 2.4 0.9 3.4 1.8c1 1.1 1.5 2.4 1.5 4.1c0 0.5-0.2 0.9-0.5 1.3c-0.4 0.3-0.9 0.5-1.4 0.5c-0.5 0-0.9-0.2-1.3-0.5c-0.3-0.4-0.5-0.8-0.5-1.3c0-0.8-0.2-1.2-0.5-1.4c-0.3-0.4-0.9-0.7-1.8-0.9c-1.7-0.5-4.1-0.6-6.5-0.6zm16.8 67.5v3.8h-30v-3.8z" /><path class="s0" d="m38.3 29.3c2.7 1.8 3.7 4.5 3.7 7.4c0 2.9-1 5.6-3.7 7.5q-2.7 1.9-7.6 2.5v-3.8c2.6-0.3 4.4-1 5.5-1.8c1.4-1 2-2.5 2-4.4c0-1.9-0.6-3.3-2-4.3c-1.6-1.1-4.4-1.9-9.2-1.9v-3.8c5.1 0 8.8 0.9 11.3 2.6zm-15.1 13.8v3.8c-1.8 0.1-3.4 0.2-4.6 0.6c-1.1 0.4-1.7 0.8-2.1 1.3c-0.4 0.5-0.8 1.3-0.8 2.5c0 1.3 0.4 2 0.8 2.5c0.4 0.5 1 1 2.1 1.3c2.1 0.7 5 0.7 8.3 0.7q0.2 0 0.4 0q0.4-0.1 1.1 0q1.9 0 3.6 0.6c1.3 0.5 2.7 1.4 3.8 2.8c1.1 1.4 1.8 3.3 1.8 5.7c0 2.4-0.7 4.3-1.8 5.7c-1.1 1.4-2.6 2.1-3.9 2.6q-0.6 0.1-1.2 0.2v-3.8q0.1 0 0.1 0c0.8-0.3 1.6-0.7 2.1-1.3c0.5-0.7 0.9-1.7 0.9-3.4c0-1.7-0.4-2.8-1-3.4c-0.5-0.7-1.2-1.2-2.1-1.5q-1.2-0.4-2.4-0.5q-0.5 0-1.1 0h-0.1h-0.3c-3.1 0-6.7 0-9.4-0.8c-1.5-0.5-2.8-1.3-3.9-2.5q-1.5-2-1.5-4.9q0-2.9 1.5-4.8c1.1-1.3 2.5-2.1 3.9-2.5c1.7-0.6 3.8-0.8 5.8-0.9z" /><path class="s0" d="m29.1 60.5v12.2h-3.8v-12.2zm-3.7-29.7h3.7v22.2h-3.7z" /></g></svg>