<svg xmlns="http://www.w3.org/2000/svg" version="1.2" width="13" height="48" style=""><rect id="backgroundrect" width="100%" height="100%" x="0" y="0" fill="none" stroke="none" style="" class=""/><defs><clipPath clipPathUnits="userSpaceOnUse" id="cp1"><path d="m-1253-7h1920v1080h-1920z" id="svg_1"/></clipPath></defs><style>.s0{fill:#efa0b7;stroke:#efa0b7}.s1{fill:#ffffff}</style><g class="currentLayer" style=""><title>Layer 1</title><g clip-path="url(#cp1)" id="svg_2" class=""><path class="s0" d="m6.341463692096859,48.35447106361387 c0,-3.58358234167099 -4.248780547174147,-7.644975662231445 -6.341463503244995,-9.269532990455627 v-28.334191048145293 c4.756097627433746,-2.866865873336792 6.214634233180096,-8.361692130565643 6.341463503244995,-10.75074702501297 z" id="svg_3"/><path class="s0" d="m6.341463692096859,-3.907985046680551e-14 c0.12682927006489988,2.3890548944473267 1.5853658758112488,7.883881151676178 6.341463503244995,10.75074702501297 v28.334191048145293 c-2.0926829560708486,1.624557328224182 -6.341463503244995,5.6859506487846385 -6.341463503244995,9.269532990455627 z" id="svg_4"/><path class="s1" d="m2.536585590149862,23.69942455291745 c0,-0.3822487831115726 0.4439024452271507,-0.7167164683341987 0.9512195254867494,-0.7167164683341987 h5.707317152920496 c0.5073170802595997,0 0.9512195254867494,0.33446768522262704 0.9512195254867494,0.7167164683341987 c0,0.3822487831115726 -0.4439024452271507,0.7167164683341987 -0.9512195254867494,0.7167164683341987 h-5.707317152920496 c-0.5073170802595997,0 -0.9512195254867494,-0.33446768522262704 -0.9512195254867494,-0.7167164683341987 z" id="svg_5"/><path class="s1" d="m2.536585590149862,26.088479447364776 c0,-0.3822487831115726 0.4439024452271507,-0.7167164683341987 0.9512195254867494,-0.7167164683341987 h5.707317152920496 c0.5073170802595997,0 0.9512195254867494,0.33446768522262704 0.9512195254867494,0.7167164683341987 c0,0.3822487831115726 -0.4439024452271507,0.7167164683341987 -0.9512195254867494,0.7167164683341987 h-5.707317152920496 c-0.5073170802595997,0 -0.9512195254867494,-0.33446768522262704 -0.9512195254867494,-0.7167164683341987 z" id="svg_6"/><path class="s1" d="m2.536585590149862,28.477534341812103 c0,-0.3822487831115726 0.4439024452271507,-0.7167164683341987 0.9512195254867494,-0.7167164683341987 h5.707317152920496 c0.5073170802595997,0 0.9512195254867494,0.33446768522262704 0.9512195254867494,0.7167164683341987 c0,0.3822487831115726 -0.4439024452271507,0.7167164683341987 -0.9512195254867494,0.7167164683341987 h-5.707317152920496 c-0.5073170802595997,0 -0.9512195254867494,-0.33446768522262704 -0.9512195254867494,-0.7167164683341987 z" id="svg_7"/></g></g></svg>