<svg version="1.2" xmlns="http://www.w3.org/2000/svg" viewBox="0 0 54 78" width="54" height="78"><defs><clipPath clipPathUnits="userSpaceOnUse" id="cp1"><path d="m-40-17h1920v1080h-1920z" /></clipPath></defs><style>.s0{fill:#2430b6}</style><g clip-path="url(#cp1)"><path fill-rule="evenodd" class="s0" d="m25.2 4.5c-3 0-4.9 0.8-6.2 1.8c-1.2 1.1-2 2.6-2.4 4.5c-0.5 1.9-0.6 4-0.5 6.1q0 0.5 0 1h35.8c1.1 0 1.9 0.9 1.8 1.9c-1.2 10.8-12.7 19.2-26.7 19.2c-14 0-25.5-8.4-26.7-19.2c-0.1-1 0.7-1.9 1.8-1.9h10.1q0-0.4 0-0.9c0-2.2 0.1-4.7 0.6-7.1c0.6-2.3 1.7-4.7 3.7-6.5c2.1-1.8 5-2.7 8.7-2.7h0.1c2.3 0 5.2 0 7.6 0.6c1.2 0.4 2.5 1 3.5 2c1 1 1.6 2.4 1.6 4.1c0 0.5-0.2 1-0.6 1.3c-0.4 0.4-0.9 0.6-1.4 0.6c-0.5 0-1-0.2-1.3-0.6c-0.4-0.3-0.6-0.8-0.6-1.3c0-0.8-0.2-1.2-0.5-1.5c-0.3-0.3-0.9-0.6-1.7-0.9c-1.9-0.5-4.3-0.5-6.7-0.5zm17.1 69v3.8h-30.6v-3.8z" /><path class="s0" d="m38.6 30.1c2.7 1.9 3.7 4.6 3.7 7.6c0 2.9-1 5.7-3.7 7.6q-2.8 2-7.8 2.5v-3.8c2.7-0.3 4.4-1 5.6-1.8c1.5-1.1 2.1-2.6 2.1-4.5c0-2-0.6-3.4-2.1-4.4c-1.6-1.2-4.5-2-9.4-2v-3.8c5.2 0 9 0.8 11.6 2.6zm-15.4 14.1v3.9c-1.9 0.1-3.5 0.2-4.8 0.7c-1.1 0.3-1.7 0.7-2.2 1.3c-0.4 0.5-0.7 1.2-0.7 2.5c0 1.3 0.3 2.1 0.7 2.6c0.5 0.5 1.1 0.9 2.2 1.3c2.1 0.7 5.1 0.7 8.5 0.7q0.2 0 0.4 0q0.4-0.1 1.2 0q1.8 0 3.6 0.7c1.4 0.4 2.8 1.3 3.9 2.7c1.1 1.5 1.8 3.5 1.8 5.9c0 2.5-0.7 4.4-1.8 5.8c-1.1 1.4-2.6 2.2-4 2.6q-0.6 0.2-1.2 0.3v-3.9q0.1 0 0.1 0c0.8-0.3 1.6-0.7 2.1-1.4c0.5-0.6 1-1.6 1-3.4c0-1.7-0.5-2.8-1-3.5c-0.6-0.7-1.3-1.2-2.2-1.5q-1.2-0.5-2.5-0.5q-0.5 0-1 0h-0.1h-0.1h-0.3c-3.2 0-6.8 0-9.6-0.9c-1.5-0.5-2.9-1.2-4-2.5q-1.5-2-1.5-5q0-3 1.5-5c1.1-1.2 2.5-2 4-2.5c1.8-0.6 3.9-0.8 6-0.9z" /><path class="s0" d="m29.1 62v12.5h-3.8v-12.5zm-3.8-30.4h3.8v22.7h-3.8z" /></g></svg>